<svg width="18" height="16" viewBox="0 0 18 16" fill="none" xmlns="http://www.w3.org/2000/svg">
<path d="M6.84019 14.9994H13C13.6176 14.9994 14.12 14.4969 14.12 13.8794V9.39951C14.12 8.78197 13.6176 8.27954 13 8.27954H6.84019C6.22265 8.27954 5.72021 8.78197 5.72021 9.39951V13.8794C5.72021 14.4969 6.22265 14.9994 6.84019 14.9994ZM6.28021 9.39951C6.28021 9.09068 6.53135 8.83953 6.84019 8.83953H13C13.3089 8.83953 13.5601 9.09068 13.5601 9.39951V13.8794C13.5601 14.1883 13.3089 14.4394 13 14.4394H6.84019C6.53135 14.4394 6.28021 14.1883 6.28021 13.8794V9.39951Z" fill="black"/>
<path d="M16.0801 1H9.92026C9.30273 1 8.80029 1.50243 8.80029 2.11998V6.59987C8.80029 7.21741 9.30273 7.71985 9.92026 7.71985H16.0801C16.6977 7.71985 17.2001 7.21741 17.2001 6.59987V2.11998C17.2001 1.50243 16.6977 1 16.0801 1ZM16.6401 6.59987C16.6401 6.90871 16.389 7.15986 16.0801 7.15986H9.92026C9.61143 7.15986 9.36028 6.90871 9.36028 6.59987V2.11998C9.36028 1.81113 9.61143 1.55999 9.92026 1.55999H16.0801C16.389 1.55999 16.6401 1.81113 16.6401 2.11998V6.59987Z" fill="black"/>
<path d="M7.12023 13.5996H12.7201C13.0877 13.5934 13.0884 13.0458 12.7201 13.0396H12.4401V12.1997C12.4401 12.045 12.3147 11.9196 12.1601 11.9196C12.0055 11.9196 11.8801 12.045 11.8801 12.1997V13.0396H11.3201V10.7997C11.3201 10.645 11.1948 10.5197 11.0402 10.5197C10.8855 10.5197 10.7602 10.645 10.7602 10.7997V13.0396H10.2002V9.95968C10.2002 9.80505 10.0747 9.67969 9.92016 9.67969C9.76554 9.67969 9.64017 9.80505 9.64017 9.95968V13.0396H9.08018V11.6396C9.08018 11.485 8.95482 11.3597 8.80019 11.3597C8.64556 11.3597 8.52019 11.485 8.52019 11.6396V13.0396H7.96021V10.7997C7.96021 10.645 7.83485 10.5197 7.68021 10.5197C7.52559 10.5197 7.40022 10.645 7.40022 10.7997V13.0396H7.12023C6.75219 13.0458 6.75229 13.5934 7.12023 13.5996Z" fill="black"/>
<path d="M2.08035 14.44H5.18543C5.55374 14.4312 5.55398 13.8879 5.18543 13.88H2.08035C1.4628 13.88 0.960378 13.3776 0.960378 12.7601V3.24026C0.960378 2.62272 1.4628 2.12028 2.08035 2.12028H8.26536C8.62894 2.11829 8.63612 1.56487 8.26534 1.5603H2.08035C1.15397 1.5603 0.400391 2.31388 0.400391 3.24026V12.7601C0.400391 13.6864 1.15397 14.44 2.08035 14.44Z" fill="black"/>
<path d="M2.64019 2.95996C1.53257 2.989 1.5328 4.61104 2.64023 4.63992C3.74781 4.61088 3.74759 2.98883 2.64019 2.95996ZM2.64019 4.07993C2.27226 4.07332 2.27231 3.52649 2.64021 3.51994C3.00813 3.52654 3.00808 4.07336 2.64019 4.07993Z" fill="black"/>
<path d="M7.39981 4.08001C7.76689 4.07404 7.76857 3.52633 7.39981 3.52002H4.31988C3.9528 3.52599 3.95113 4.0737 4.31988 4.08001H7.39981Z" fill="black"/>
<path d="M2.64019 5.19971C1.53257 5.22873 1.5328 6.85078 2.64023 6.87967C3.74781 6.85063 3.74759 5.22857 2.64019 5.19971ZM2.64019 6.31968C2.27226 6.31306 2.27231 5.76624 2.64021 5.75969C3.00813 5.76628 3.00808 6.31311 2.64019 6.31968Z" fill="black"/>
<path d="M4.31988 6.32H7.39981C7.76689 6.31403 7.76857 5.76632 7.39981 5.76001H4.31988C3.9528 5.76598 3.95113 6.31369 4.31988 6.32Z" fill="black"/>
<path d="M2.64019 7.4397C1.53257 7.46872 1.5328 9.09077 2.64023 9.11966C3.74781 9.09062 3.74759 7.46856 2.64019 7.4397ZM2.64019 8.55967C2.27226 8.55305 2.27231 8.00623 2.64021 7.99968C3.00813 8.00627 3.00808 8.5531 2.64019 8.55967Z" fill="black"/>
<path d="M5.8712 8.27999C5.8712 8.12537 5.74584 8 5.59122 8H4.32004C4.16541 8 4.04004 8.12537 4.04004 8.27999C4.04004 8.43462 4.16541 8.55999 4.32004 8.55999H5.59122C5.74584 8.55999 5.8712 8.43462 5.8712 8.27999Z" fill="black"/>
<path d="M2.64019 9.67969C1.53257 9.70871 1.5328 11.3308 2.64023 11.3597C3.74781 11.3306 3.74759 9.70855 2.64019 9.67969ZM2.64019 10.7997C2.27226 10.7931 2.27231 10.2462 2.64021 10.2396C3.00813 10.2462 3.00808 10.7931 2.64019 10.7997Z" fill="black"/>
<path d="M4.31993 10.2395C3.95214 10.2457 3.95175 10.7932 4.31995 10.7995H5.15991C5.31453 10.7995 5.4399 10.6741 5.4399 10.5195C5.4399 10.3648 5.31453 10.2395 5.15991 10.2395H4.31993Z" fill="black"/>
<path d="M15.52 2.11987H11.0401C10.6731 2.12579 10.6712 2.67354 11.0401 2.67986H15.52C15.8866 2.67404 15.8891 2.12621 15.52 2.11987Z" fill="black"/>
<path d="M10.2018 2.67986C10.5698 2.67359 10.5697 2.12608 10.2018 2.11987C9.83036 2.12571 9.83332 2.67381 10.2018 2.67986Z" fill="black"/>
<path d="M11.0416 3.79998H13.8402C14.2075 3.79391 14.2086 3.24626 13.8402 3.23999H11.0416C10.6744 3.24598 10.6729 3.79367 11.0416 3.79998Z" fill="black"/>
<path d="M10.2033 3.23999C9.83182 3.24582 9.83477 3.79393 10.2033 3.79998C10.5712 3.79371 10.5712 3.24619 10.2033 3.23999Z" fill="black"/>
<path d="M14.6801 4.35986H11.0416C10.6746 4.36578 10.6726 4.91353 11.0416 4.91985H14.6801C15.047 4.91394 15.049 4.36619 14.6801 4.35986Z" fill="black"/>
<path d="M10.2033 4.35986C9.83182 4.3657 9.83477 4.9138 10.2033 4.91985C10.5712 4.91358 10.5712 4.36607 10.2033 4.35986Z" fill="black"/>
<path d="M13.2801 5.47998H11.0416C10.6742 5.48603 10.6731 6.03368 11.0416 6.03997H13.2801C13.6475 6.03392 13.6487 5.48625 13.2801 5.47998Z" fill="black"/>
<path d="M10.2033 5.47998C9.83182 5.48581 9.83477 6.03392 10.2033 6.03997C10.5712 6.0337 10.5712 5.48618 10.2033 5.47998Z" fill="black"/>
</svg>
